<?xml version="1.0" ?><svg height="467.39001" id="svg38" version="1.1" viewBox="0 0 467.39801 467.39001" width="467.39801" xml:space="preserve" xmlns="http://www.w3.org/2000/svg" xmlns:cc="http://creativecommons.org/ns#" xmlns:dc="http://purl.org/dc/elements/1.1/" xmlns:inkscape="http://www.inkscape.org/namespaces/inkscape" xmlns:rdf="http://www.w3.org/1999/02/22-rdf-syntax-ns#" xmlns:sodipodi="http://sodipodi.sourceforge.net/DTD/sodipodi-0.dtd" xmlns:svg="http://www.w3.org/2000/svg"><defs id="defs42"/><g id="window_screen__lock_icon" transform="translate(-22.301,-22.305)"><g id="g34"><path d="m 256.001,22.305 c 129.121,0 233.698,104.577 233.698,233.69 0,129.123 -104.577,233.7 -233.698,233.7 -129.123,0 -233.7,-104.577 -233.7,-233.7 0,-129.113 104.577,-233.69 233.7,-233.69 z" id="path4" style="clip-rule:evenodd;fill:#84dbff;fill-rule:evenodd"/><path d="m 488.678,233.129 c 0.678,7.74 1.021,15.136 1.021,22.866 0,128.455 -103.575,232.688 -232.023,233.7 L 124.526,372.006 c 0,-5.373 3.359,-7.73 3.359,-12.779 v 0 c 0,-57.833 0,-115.667 0,-173.509 0,-8.732 0,-17.818 0,-26.56 0,-5.382 0,-10.765 0,-15.804 5.378,0 10.421,0 15.809,0 77.335,0 154.324,0 231.674,0 l 12.436,-3.016 c 4.037,7.721 100.196,92.791 100.874,92.791 z" id="path6" style="clip-rule:evenodd;fill:#77c5e6;fill-rule:evenodd"/><rect height="173.509" id="rect8" style="clip-rule:evenodd;fill:#ffffff;fill-rule:evenodd" width="231.67" x="140.33" y="182.692"/><path d="M 140.33,182.692 H 372 V 356.201 H 140.33 Z m 247.474,173.509 v 15.805 H 372 140.33 124.526 v -15.805 0 -173.509 -26.559 -15.795 H 140.33 372 387.804 v 15.795 26.559 z" id="path10" style="clip-rule:evenodd;fill:#4b4b55;fill-rule:evenodd"/><path d="m 321.906,161.171 c 0,5.726 4.705,10.765 10.421,10.765 6.051,0 10.756,-5.039 10.756,-10.765 0,-5.707 -4.705,-10.412 -10.756,-10.412 -5.716,0.001 -10.421,4.705 -10.421,10.412 z" id="path12" style="clip-rule:evenodd;fill:#90dfaa;fill-rule:evenodd"/><path d="m 350.822,161.171 c 0,5.726 4.705,10.765 10.422,10.765 6.051,0 10.756,-5.039 10.756,-10.765 0,-5.707 -4.705,-10.412 -10.756,-10.412 -5.717,0.001 -10.422,4.705 -10.422,10.412 z" id="path14" style="clip-rule:evenodd;fill:#ffd05b;fill-rule:evenodd"/><path d="m 292.971,161.171 c 0,5.726 4.724,10.765 10.44,10.765 5.716,0 10.421,-5.039 10.421,-10.765 0,-5.707 -4.705,-10.412 -10.421,-10.412 -5.717,0.001 -10.44,4.705 -10.44,10.412 z" id="path16" style="clip-rule:evenodd;fill:#fd8469;fill-rule:evenodd"/><path d="m 290.298,294.331 h -68.596 v -60.524 c 0,-19.163 15.46,-34.643 34.299,-34.643 19.161,0 34.296,15.479 34.296,34.643 v 60.524 z M 237.84,278.527 h 36.644 v -44.721 c 0,-10.431 -8.398,-18.495 -18.483,-18.495 -10.087,0 -18.161,8.064 -18.161,18.495 z" id="path18" style="clip-rule:evenodd;fill:#ffd15d;fill-rule:evenodd"/><path d="m 203.202,260.032 h 10.092 85.736 9.754 v 9.753 59.522 10.088 H 203.202 v -9.753 -0.335 -59.522 z m 63.219,33.297 c 0,-5.717 -4.705,-10.421 -10.419,-10.421 -5.716,0 -10.426,4.704 -10.426,10.421 0,3.693 2.019,6.729 5.048,8.742 v 15.126 h 11.092 v -15.126 c 2.691,-2.013 4.705,-5.049 4.705,-8.742 z" id="path20" style="clip-rule:evenodd;fill:#fc6f58;fill-rule:evenodd"/><path d="m 264.407,303.417 v 16.472 h -16.813 v -16.472 c -3.025,-2.357 -4.715,-6.395 -4.715,-10.088 0,-7.405 5.722,-13.456 13.123,-13.456 7.394,0 13.444,6.051 13.444,13.456 -0.001,3.693 -2.023,7.731 -5.039,10.088 z" id="path22" style="clip-rule:evenodd;fill:#b85140;fill-rule:evenodd"/><path d="m 266.421,293.329 c 0,-5.717 -4.705,-10.421 -10.419,-10.421 -5.716,0 -10.426,4.704 -10.426,10.421 0,3.693 2.019,6.729 5.048,8.742 v 15.126 h 11.092 v -15.126 c 2.691,-2.013 4.705,-5.049 4.705,-8.742 z" id="path24" style="clip-rule:evenodd;fill:#324a5e;fill-rule:evenodd"/><path d="m 290.298,294.331 h -68.596 v -60.524 c 0,-19.163 15.46,-34.643 34.299,-34.643 19.161,0 34.296,15.479 34.296,34.643 v 60.524 z M 237.84,278.527 h 36.644 v -44.721 c 0,-10.431 -8.398,-18.495 -18.483,-18.495 -10.087,0 -18.161,8.064 -18.161,18.495 z" id="path26" style="clip-rule:evenodd;fill:#ffd15d;fill-rule:evenodd"/><path d="m 203.202,260.032 h 10.092 85.736 9.754 v 9.753 59.522 10.088 H 203.202 v -9.753 -0.335 -59.522 z m 63.219,33.297 c 0,-5.717 -4.705,-10.421 -10.419,-10.421 -5.716,0 -10.426,4.704 -10.426,10.421 0,3.693 2.019,6.729 5.048,8.742 v 15.126 h 11.092 v -15.126 c 2.691,-2.013 4.705,-5.049 4.705,-8.742 z" id="path28" style="clip-rule:evenodd;fill:#fc6f58;fill-rule:evenodd"/><path d="m 264.407,303.417 v 16.472 h -16.813 v -16.472 c -3.025,-2.357 -4.715,-6.395 -4.715,-10.088 0,-7.405 5.722,-13.456 13.123,-13.456 7.394,0 13.444,6.051 13.444,13.456 -0.001,3.693 -2.023,7.731 -5.039,10.088 z" id="path30" style="clip-rule:evenodd;fill:#b85140;fill-rule:evenodd"/><path d="m 266.421,293.329 c 0,-5.717 -4.705,-10.421 -10.419,-10.421 -5.716,0 -10.426,4.704 -10.426,10.421 0,3.693 2.019,6.729 5.048,8.742 v 15.126 h 11.092 v -15.126 c 2.691,-2.013 4.705,-5.049 4.705,-8.742 z" id="path32" style="clip-rule:evenodd;fill:#324a5e;fill-rule:evenodd"/></g></g><g id="Layer_1" transform="translate(-22.301,-22.305)"/></svg>