<?xml version="1.0" encoding="UTF-8"?>
<svg enable-background="new 0 0 40.833 52.176" viewBox="0 0 40.833 52.176" xmlns="http://www.w3.org/2000/svg">
 <defs>
  <radialGradient id="j" cx="-517.88" cy="25.455" r="4.2567" gradientTransform="matrix(-.9983 .0576 -.0576 -.9983 -486.06 68.246)" gradientUnits="userSpaceOnUse">
   <stop stop-color="#fff200" offset="0"/>
   <stop stop-color="#006e3a" offset="1"/>
  </radialGradient>
  <radialGradient id="i" cx="145.81" cy="186.28" r="4.2535" gradientTransform="matrix(.9119 .4105 .4105 -.9119 -197.5 121.59)" gradientUnits="userSpaceOnUse">
   <stop stop-color="#fff200" offset="0"/>
   <stop stop-color="#006e3a" offset="1"/>
  </radialGradient>
  <radialGradient id="h" cx="25.205" cy="25.089" r="23.358" gradientUnits="userSpaceOnUse">
   <stop stop-color="#fff200" offset="0"/>
   <stop stop-color="#006e3a" offset="1"/>
  </radialGradient>
  <radialGradient id="g" cx="389.8" cy="221.62" r="5.6544" gradientTransform="matrix(.7944 .6074 -.9008 1.1782 -85.73 -473.49)" gradientUnits="userSpaceOnUse">
   <stop stop-color="#787878" offset="0"/>
   <stop offset="1"/>
  </radialGradient>
  <radialGradient id="f" cx="-559.06" cy="824.3" r="8.6614" gradientTransform="matrix(-.8442 .0148 .0175 .9998 -465.14 -777.85)" gradientUnits="userSpaceOnUse">
   <stop stop-color="#ede9c8" offset=".0112"/>
   <stop stop-color="#fff" offset=".5562"/>
   <stop stop-color="#cbcdce" offset="1"/>
  </radialGradient>
  <radialGradient id="e" cx="12.719" cy="8.3638" r="8.2473" gradientTransform="matrix(.9998 -.0212 -.0212 -.9998 8.7061 45.539)" gradientUnits="userSpaceOnUse">
   <stop stop-color="#ede9c8" offset=".0112"/>
   <stop stop-color="#fff" offset=".5562"/>
   <stop stop-color="#cbcdce" offset="1"/>
  </radialGradient>
  <radialGradient id="d" cx="13.024" cy="10.53" r=".6245" gradientTransform="matrix(.9998 -.0212 -.0212 -.9998 8.7061 45.539)" gradientUnits="userSpaceOnUse">
   <stop stop-color="#ede9c8" offset=".0112"/>
   <stop stop-color="#fff" offset=".5562"/>
   <stop stop-color="#cbcdce" offset="1"/>
  </radialGradient>
  <radialGradient id="c" cx="17.349" cy="10.664" r=".5044" gradientTransform="matrix(.9998 -.0212 -.0212 -.9998 8.7061 45.539)" gradientUnits="userSpaceOnUse">
   <stop stop-color="#ede9c8" offset=".0112"/>
   <stop stop-color="#fff" offset=".5562"/>
   <stop stop-color="#cbcdce" offset="1"/>
  </radialGradient>
  <radialGradient id="b" cx="8.189" cy="11.095" r=".5223" gradientTransform="matrix(.9998 -.0212 -.0212 -.9998 8.7061 45.539)" gradientUnits="userSpaceOnUse">
   <stop stop-color="#ede9c8" offset=".0112"/>
   <stop stop-color="#fff" offset=".5562"/>
   <stop stop-color="#cbcdce" offset="1"/>
  </radialGradient>
  <radialGradient id="a" cx="24.27" cy="23.646" r="9.6182" gradientUnits="userSpaceOnUse">
   <stop stop-color="#787878" offset="0"/>
   <stop offset="1"/>
  </radialGradient>
 </defs>
 <path d="m28.594,10.576c1.035-.529 2.303-.572 3.418-.002 1.849.943 2.582,3.205 1.639,5.053s-3.204,2.579-5.053,1.637-2.58-3.205-1.638-5.05c.112-.22-.724-.92-.832-1.059-.332-.427-.53-.67-.6-1.261-.391-3.34 2.534.945 3.066.682z" fill="#8cc63f" stroke="#006031" stroke-width=".4831"/>
 <path d="m33.511 13.914a3.159 3.159 0 1 0 -6.318 0 3.159 3.159 0 1 0 6.318 0" fill="url(#j)" opacity=".5"/>
 <path d="m13.619,9.625c-.778-.864-1.946-1.356-3.191-1.222-2.063.22-3.556,2.07-3.334,4.133s2.07,3.554 4.133,3.333 3.555-2.07 3.334-4.132c-.036-.345 3.729-1.736 1.539-2.557-.595-.222-2.063.905-2.481.445z" fill="#8cc63f" stroke="#006031" stroke-width=".4831"/>
 <path d="m13.943 12.115a3.159 3.159 0 1 0 -6.318 0 3.159 3.159 0 1 0 6.318 0" fill="url(#i)" opacity=".5"/>
 <path d="m38.745 49.074a18.429 2.184 0 1 0 -36.858 0 18.429 2.184 0 1 0 36.858 0" fill="#bcbec0" opacity=".75"/>
 <path d="m26.2,13.206-.184-.459c.436-.667.804-1.69.794-2.502-.002-.185-.509-2.161-1.019-1.642-.581.592-.663,3.586-1.106,3.771l-.687.286c-1.039-.188-2.109-.286-3.203-.286-.807,0-1.602.053-2.382.157l-.653-.317c-.08-.455-.574-1.917-.885-2.939-.821-.634-1.444-.273-1.989.476 .438.927 1.074,2.439 1.383,2.838l-.102.391c-7.64,2.04-13.267,9.009-13.267,17.293 0,9.884 8.012,17.896 17.896,17.896s17.896-8.012 17.896-17.896c0-8.001-5.25-14.776-12.492-17.067z" fill="#8cc63f" stroke="#006031" stroke-width=".4831"/>
 <path d="m38.054 30.352a17.338 17.338 0 1 0 -34.676 0 17.338 17.338 0 1 0 34.676 0" fill="url(#h)" stroke="#28903a" stroke-width=".4831"/>
 <path d="m26.473,24.814c.932-.404 1.866-.727 2.55-.983 .735-.276 1.82-.811 2.615-.771 .991.05.847.943.781,2.031-.194,3.231-3.273,4.774-6.131,5.024-1.552.136-4.104-1.221-3.036-3.027 .563-.95 1.887-1.695 3.221-2.274z" fill="url(#g)"/>
 <path d="m30.449,40.511c-.556.655-1.361,1.157-2.157,1.154-.62-.002-1.188-.335-1.734-.578-.731-.325-1.427-.666-2.2-.906-1.92-.598-4.095-.927-6.065-.377-1.408.394-2.69,1.229-4.166,1.388-.532.057-.85.281-1.326-.089-.365-.283-.561-.75-.882-1.077-1.297-1.317.302-2.586 1.282-3.542 .603-.588.871-1.887 1.796-2.113 .904-.221 1.054,1.234 1.647,1.554 .976.526 2.316.264 3.356.148 .923-.103 1.671-.022 2.609.045 1.572.113 2.184-.231 3.496-.795 1.611-.692 2.9-.776 3.791.776 .516.896 1.544,2.419 1.117,3.494-.126.315-.321.632-.564.918z" fill="url(#f)" stroke="#f6921d" stroke-linecap="round" stroke-width=".4215"/>
 <path d="m15.337,35.24c-.828-.415-1.526,1.31-1.738,1.816-.489,1.168-.765,2.344-.635,3.609 .023.229.16.267.065.494-.385-.178-.7-.812-.925-1.167-.328-.519-.608-.714-1.076-1.064-1.678-1.256.093-3.264 1.154-4.179 1.425-1.228 3.173-1.835 5.048-1.835 2.157,0 4.279.023 6.435.139 2.028.108 4.169.236 6.021,1.107 .539.254 1.044.66 1.467,1.068 .643.62 1.144,1.448 1.015,2.38-.131.948-1.15,1.835-1.854,2.429-.199.168-.521.477-.805.473-.543.002-.344-.235-.291-.682 .076-.641-.01-4.717-1.366-3.993-.351.187-.571.761-.791,1.078-.354.51-.631,1.111-1.085,1.542 .002-.295.285-.797.035-1.057-.18-.187-.865-.105-1.117-.119-.924-.051-1.85-.085-2.773-.039-1.792.089-3.584.005-5.372.184-.068.318.189.73.298,1.033-.155-.481-.46-.91-.709-1.353-.24-.423-.555-1.64-1.001-1.864z" fill="url(#e)" stroke="#f6921d" stroke-linecap="round" stroke-width=".4587"/>
 <path d="m21.493,33.853 .037,1.763" fill="url(#d)" stroke="#f6921d" stroke-linecap="round" stroke-width=".4587"/>
 <path d="m25.819,33.798 .031,1.424" fill="url(#c)" stroke="#f6921d" stroke-linecap="round" stroke-width=".4587"/>
 <path d="m16.649,33.535 .032,1.476" fill="url(#b)" stroke="#f6921d" stroke-linecap="round" stroke-width=".4587"/>
 <path d="m17.42,40.23c-.443.188-.879.396-1.338.529-.795.231-2.183.75-2.995.454-.75-.273-1.05-1.197-1.545-1.74-.505-.552-1.268-1.104-1.302-1.927-.036-.835.691-1.71 1.259-2.265 .79-.771 1.747-1.318 2.762-1.733 2.034-.831 3.979-.571 6.107-.571 1.337,0 2.677-.008 4,.063 1.837.098 3.785.262 5.447,1.119 .849.438 1.627,1.18 2.098,2.011 .623,1.103.036,2.222-.722,3.05-.313.342-.481.808-.743,1.189-.517.753-1.21,1.287-2.164,1.232-.769-.044-1.435-.359-2.122-.67-.564-.254-1.225-.425-1.821-.619-.321-.104-.597-.167-.921-.25-1.837-.471-3.331-.675-5.173-.17-.283.078-.556.184-.827.298z" fill="none" stroke="#1e3319" stroke-width=".5797"/>
 <path d="m18.232,43.48c1.017-.804 3.37-1.201 4.12.18-1.186-.535-2.619-.85-3.85-.247 .08-.11.178-.166.293-.245" fill="#005412"/>
 <path d="m13.984,24.156c2.24.989 5.415,2.578 5.137,4.397-.256,1.673-3.188,1.793-4.385,1.688-1.969-.175-3.806-.464-4.786-2.425-.515-1.03-1.063-4.039.059-4.887 .537-.406 1.693.212 2.309.5 .386.179.982.425 1.666.727z" fill="url(#a)"/>
 <path d="m19.666,27.116c.083-.009.167-.022.25-.044 .166-.041.518-.06.642-.153 .167-.126.188-.391.358-.526 .007-.005 1.394,1.208 1.657,1.257 .85.158 1.572-.803 2.136-1.302 1.536-1.361 3.073-2.949 3.761-4.927-.943,1.35-2.109,2.669-3.422,3.669-.5.381-.941.79-1.413,1.203-.658.577-.977.356-1.219-.39-.267-.821-.302-1.717-.501-2.566-.128-.541-.048-1.229-.265-1.729-.243.638-.49,4.932-1.36,4.044-.468-.477-.28-1.744-.502-2.354-.097.749.145,2.411-.499,2.966-.354.307-.875-.133-1.248-.423-1.454-1.132-2.859-2.616-4.682-3.119 .538.521 1.395.859 2.01,1.35 1.116.89 2.612,3.211 4.297,3.044z" fill="#005412"/>
 <path d="m11.139,26.452c-.725-.582.023-1.746.779-1.794-.031-.57-.609-.711-.999-1.062-.828.575-.501,2.278.22,2.856z" fill="#fff"/>
 <path d="m30.628,24.334c-.813-.328-2.821.239-3.377.873 1.158,1.027 2.424-1.257 3.377-.873z" fill="#fff"/>
</svg>
